<svg width="52" height="52" viewBox="0 0 52 52" fill="none" xmlns="http://www.w3.org/2000/svg">
<path d="M41.275 10.6384C39.2886 8.63189 36.9225 7.04099 34.3149 5.95849C31.7072 4.87599 28.9101 4.32355 26.0867 4.33338C14.2567 4.33338 4.61498 13.975 4.61498 25.805C4.61498 29.5967 5.61165 33.28 7.47498 36.53L4.44165 47.6667L15.8167 44.6767C18.9583 46.3884 22.49 47.2984 26.0867 47.2984C37.9167 47.2984 47.5583 37.6567 47.5583 25.8267C47.5583 20.085 45.3267 14.69 41.275 10.6384V10.6384ZM26.0867 43.6584C22.88 43.6584 19.7383 42.7917 16.9867 41.1667L16.3367 40.7767L9.57665 42.5534L11.375 35.9667L10.9417 35.295C9.1601 32.4501 8.21412 29.1617 8.21165 25.805C8.21165 15.9684 16.2283 7.95171 26.065 7.95171C30.8317 7.95171 35.3167 9.81505 38.675 13.195C40.3379 14.8503 41.6557 16.8191 42.552 18.9875C43.4483 21.1558 43.9054 23.4805 43.8967 25.8267C43.94 35.6634 35.9233 43.6584 26.0867 43.6584V43.6584ZM35.88 30.3117C35.3383 30.0517 32.695 28.7517 32.2183 28.5567C31.72 28.3834 31.3733 28.2967 31.005 28.8167C30.6367 29.3584 29.6183 30.5717 29.315 30.9184C29.0117 31.2867 28.6867 31.33 28.145 31.0484C27.6033 30.7884 25.87 30.2034 23.8333 28.3834C22.23 26.9534 21.1683 25.1984 20.8433 24.6567C20.54 24.115 20.8 23.8334 21.0816 23.5517C21.32 23.3134 21.6233 22.9234 21.8833 22.62C22.1433 22.3167 22.2517 22.0784 22.425 21.7317C22.5983 21.3634 22.5117 21.06 22.3817 20.8C22.2517 20.54 21.1683 17.8967 20.735 16.8134C20.3016 15.7734 19.8467 15.9034 19.5217 15.8817H18.4816C18.1133 15.8817 17.55 16.0117 17.0517 16.5534C16.575 17.095 15.1883 18.395 15.1883 21.0384C15.1883 23.6817 17.1167 26.2384 17.3767 26.585C17.6367 26.9534 21.1683 32.37 26.5417 34.6884C27.82 35.2517 28.8167 35.5767 29.5967 35.815C30.875 36.2267 32.045 36.1617 32.9767 36.0317C34.0167 35.88 36.1616 34.7317 36.595 33.475C37.05 32.2184 37.05 31.1567 36.8983 30.9184C36.7467 30.68 36.4216 30.5717 35.88 30.3117V30.3117Z" fill="#409DC5"/>
</svg>
