<svg width="52" height="52" viewBox="0 0 52 52" fill="none" xmlns="http://www.w3.org/2000/svg">
<path d="M43.3334 8.66675H8.66671C6.28337 8.66675 4.33337 10.6167 4.33337 13.0001V39.0001C4.33337 41.3834 6.28337 43.3334 8.66671 43.3334H43.3334C45.7167 43.3334 47.6667 41.3834 47.6667 39.0001V13.0001C47.6667 10.6167 45.7167 8.66675 43.3334 8.66675ZM42.4667 17.8751L28.2967 26.7367C26.8884 27.6251 25.1117 27.6251 23.7034 26.7367L9.53337 17.8751C9.31612 17.7531 9.12587 17.5883 8.97413 17.3907C8.8224 17.1931 8.71234 16.9668 8.65062 16.7254C8.5889 16.484 8.5768 16.2326 8.61505 15.9864C8.6533 15.7402 8.7411 15.5043 8.87315 15.2931C9.0052 15.0818 9.17874 14.8995 9.38328 14.7572C9.58782 14.615 9.8191 14.5157 10.0631 14.4654C10.3071 14.4151 10.5588 14.4148 10.8029 14.4646C11.0471 14.5144 11.2785 14.6132 11.4834 14.7551L26 23.8334L40.5167 14.7551C40.7215 14.6132 40.953 14.5144 41.1971 14.4646C41.4413 14.4148 41.693 14.4151 41.937 14.4654C42.181 14.5157 42.4123 14.615 42.6168 14.7572C42.8213 14.8995 42.9949 15.0818 43.1269 15.2931C43.259 15.5043 43.3468 15.7402 43.385 15.9864C43.4233 16.2326 43.4112 16.484 43.3495 16.7254C43.2877 16.9668 43.1777 17.1931 43.026 17.3907C42.8742 17.5883 42.684 17.7531 42.4667 17.8751V17.8751Z" fill="#409DC5"/>
</svg>
