<svg width="52" height="52" viewBox="0 0 52 52" fill="none" xmlns="http://www.w3.org/2000/svg">
<path d="M41.7517 11.5483C38.8701 10.2049 35.7501 9.22994 32.5001 8.6666C32.4716 8.66569 32.4432 8.67104 32.417 8.68227C32.3908 8.6935 32.3674 8.71034 32.3484 8.7316C31.9584 9.4466 31.5034 10.3783 31.2001 11.0933C27.7529 10.5733 24.2472 10.5733 20.8001 11.0933C20.4967 10.3566 20.0417 9.4466 19.6301 8.7316C19.6084 8.68827 19.5434 8.6666 19.4784 8.6666C16.2284 9.22994 13.1301 10.2049 10.2267 11.5483C10.2051 11.5483 10.1834 11.5699 10.1617 11.5916C4.26838 20.4099 2.64338 28.9899 3.44505 37.4833C3.44505 37.5266 3.46672 37.5699 3.51005 37.5916C7.41005 40.4516 11.1584 42.1849 14.8634 43.3333C14.9284 43.3549 14.9934 43.3333 15.0151 43.2899C15.8817 42.0983 16.6617 40.8416 17.3334 39.5199C17.3767 39.4333 17.3334 39.3466 17.2467 39.3249C16.0117 38.8483 14.8417 38.2849 13.6934 37.6349C13.6067 37.5916 13.6067 37.4616 13.6717 37.3966C13.9101 37.2233 14.1484 37.0283 14.3867 36.8549C14.4301 36.8116 14.4951 36.8116 14.5384 36.8333C21.9917 40.2349 30.0301 40.2349 37.3967 36.8333C37.4401 36.8116 37.5051 36.8116 37.5484 36.8549C37.7867 37.0499 38.025 37.2233 38.2634 37.4183C38.35 37.4833 38.35 37.6133 38.2417 37.6566C37.115 38.3283 35.9234 38.8699 34.6884 39.3466C34.6017 39.3683 34.5801 39.4766 34.6017 39.5416C35.2951 40.8633 36.0751 42.1199 36.9201 43.3116C36.9851 43.3333 37.0501 43.3549 37.1151 43.3333C40.8417 42.1849 44.59 40.4516 48.49 37.5916C48.5334 37.5699 48.555 37.5266 48.555 37.4833C49.5084 27.6683 46.9734 19.1533 41.8384 11.5916C41.8167 11.5699 41.7951 11.5483 41.7517 11.5483V11.5483ZM18.4601 32.3049C16.2284 32.3049 14.3651 30.2466 14.3651 27.7116C14.3651 25.1766 16.1851 23.1183 18.4601 23.1183C20.7567 23.1183 22.5767 25.1983 22.5551 27.7116C22.5551 30.2466 20.7351 32.3049 18.4601 32.3049ZM33.5617 32.3049C31.3301 32.3049 29.4667 30.2466 29.4667 27.7116C29.4667 25.1766 31.2867 23.1183 33.5617 23.1183C35.8584 23.1183 37.6784 25.1983 37.6567 27.7116C37.6567 30.2466 35.8584 32.3049 33.5617 32.3049Z" fill="#409DC5"/>
</svg>
