<svg width="1172" height="119" viewBox="0 0 1172 119" fill="none" xmlns="http://www.w3.org/2000/svg">
<path d="M12.372 63.792C8.532 63.792 5.80133 63.28 4.18 62.256C2.55867 61.232 1.57733 59.952 1.236 58.416C0.894667 56.7947 0.724 55.1307 0.724 53.424V15.664C0.724 13.9573 0.894667 12.2933 1.236 10.672C1.57733 9.05066 2.55867 7.728 4.18 6.70399C5.80133 5.59466 8.57467 5.03999 12.5 5.03999C16.4253 5.03999 19.156 5.59466 20.692 6.70399C22.3133 7.728 23.2947 9.09333 23.636 10.8C23.9773 12.4213 24.148 14.0853 24.148 15.792V53.552C24.148 55.2587 23.9773 56.9227 23.636 58.544C23.2947 60.08 22.3133 61.36 20.692 62.384C19.0707 63.3227 16.2973 63.792 12.372 63.792ZM12.372 95.28C7.42267 95.28 4.13733 94.3413 2.516 92.464C0.894667 90.5013 0.0840001 87.3013 0.0840001 82.864C0.0840001 80.9867 0.254667 79.1093 0.596 77.232C1.02267 75.3547 2.08933 73.8187 3.796 72.624C5.50267 71.344 8.404 70.704 12.5 70.704C17.5347 70.704 20.82 71.6427 22.356 73.52C23.892 75.3973 24.66 78.5973 24.66 83.12C24.66 84.9973 24.4893 86.8747 24.148 88.752C23.8067 90.6293 22.7827 92.208 21.076 93.488C19.3693 94.6827 16.468 95.28 12.372 95.28ZM44.122 95.152C40.282 95.152 37.5513 94.5973 35.93 93.488C34.3087 92.2933 33.3273 90.8 32.986 89.008C32.6447 87.1307 32.474 85.2533 32.474 83.376V30.64C32.474 28.7627 32.6447 26.928 32.986 25.136C33.3273 23.344 34.3087 21.8933 35.93 20.784C37.5513 19.5893 40.3247 18.992 44.25 18.992C48.1753 18.992 50.906 19.5893 52.442 20.784C54.0633 21.9787 55.0447 23.472 55.386 25.264C55.7273 27.056 55.898 28.8907 55.898 30.768V83.504C55.898 85.3813 55.7273 87.216 55.386 89.008C55.0447 90.8 54.0633 92.2933 52.442 93.488C50.8207 94.5973 48.0473 95.152 44.122 95.152ZM100.064 95.152C96.3093 95.152 93.5787 94.64 91.872 93.616C90.2507 92.5067 89.2267 91.0987 88.8 89.392C88.4587 87.6853 88.288 85.936 88.288 84.144V59.184C88.288 55.2587 87.904 52.1013 87.136 49.712C86.4533 47.2373 85.3867 45.4453 83.936 44.336C82.4853 43.1413 80.5653 42.544 78.176 42.544H76.64C74.6773 42.544 72.7573 42.3733 70.88 42.032C69.088 41.6907 67.5947 40.7093 66.4 39.088C65.2907 37.3813 64.736 34.608 64.736 30.768C64.736 26.8427 65.2907 24.0693 66.4 22.448C67.5947 20.8267 69.088 19.8453 70.88 19.504C72.7573 19.1627 74.6347 18.992 76.512 18.992H77.92C85.6 18.992 91.9573 20.4427 96.992 23.344C102.027 26.16 105.739 30.512 108.128 36.4C110.603 42.288 111.84 49.7547 111.84 58.8V83.248C111.84 85.2107 111.669 87.1307 111.328 89.008C110.987 90.8 110.005 92.2933 108.384 93.488C106.763 94.5973 103.989 95.152 100.064 95.152ZM74.336 95.152C72.3733 95.152 70.4533 94.9813 68.576 94.64C66.784 94.2987 65.2907 93.3173 64.096 91.696C62.9867 89.9893 62.432 87.216 62.432 83.376C62.432 79.4507 62.9867 76.6773 64.096 75.056C65.2907 73.4347 66.784 72.4533 68.576 72.112C70.368 71.7707 72.2453 71.6 74.208 71.6H101.472L101.344 95.152H74.336ZM139.314 94.384C135.133 92.08 132.658 89.648 131.89 87.088C131.122 84.4427 131.933 81.4133 134.322 78C137.053 74.16 139.655 70.32 142.13 66.48C144.605 62.5547 146.951 58.6293 149.17 54.704C151.474 50.6933 153.65 46.6827 155.698 42.672C157.831 38.576 159.837 34.48 161.714 30.384L179.506 44.976C177.117 50.5227 174.599 55.8987 171.954 61.104C169.394 66.224 166.663 71.1733 163.762 75.952C160.946 80.7307 158.002 85.3813 154.93 89.904C153.906 91.3547 152.754 92.7627 151.474 94.128C150.279 95.4933 148.701 96.304 146.738 96.56C144.861 96.816 142.386 96.0907 139.314 94.384ZM178.738 46.768L163.506 42.544H130.482C125.959 42.544 122.802 41.7333 121.01 40.112C119.218 38.4053 118.194 35.3333 117.938 30.896L117.042 11.824C116.957 9.86133 117.127 7.984 117.554 6.19199C117.981 4.4 119.047 2.94933 120.754 1.84C122.546 0.64533 125.362 0.0479965 129.202 0.0479965C133.127 0.0479965 135.815 0.64533 137.266 1.84C138.802 3.03466 139.698 4.52799 139.954 6.31999C140.21 8.11199 140.381 9.94666 140.466 11.824L140.85 18.992H164.402C169.095 18.992 172.85 20.3147 175.666 22.96C178.567 25.52 180.317 28.9333 180.914 33.2C181.597 37.3813 180.871 41.904 178.738 46.768ZM227.175 96.56C220.178 96.56 214.034 95.28 208.743 92.72C203.538 90.0747 199.186 86.6187 195.687 82.352C192.188 78.0853 189.586 73.392 187.879 68.272C186.172 63.152 185.319 58.0747 185.319 53.04V30.768C185.319 28.8053 185.49 26.928 185.831 25.136C186.172 23.344 187.154 21.8933 188.775 20.784C190.396 19.5893 193.17 18.992 197.095 18.992C201.02 18.992 203.794 19.5893 205.415 20.784C207.036 21.8933 208.018 23.344 208.359 25.136C208.7 26.928 208.871 28.848 208.871 30.896V53.04C208.871 57.392 209.554 61.0613 210.919 64.048C212.37 66.9493 214.46 69.168 217.191 70.704C220.007 72.24 223.42 73.008 227.431 73.008C232.38 73.008 236.22 72.0693 238.951 70.192C241.682 68.3147 243.602 65.84 244.711 62.768C245.82 59.696 246.375 56.4107 246.375 52.912V30.128C246.375 28.2507 246.546 26.5013 246.887 24.88C247.314 23.1733 248.338 21.7653 249.959 20.656C251.666 19.5467 254.396 18.992 258.151 18.992C262.076 18.992 264.85 19.5893 266.471 20.784C268.092 21.9787 269.074 23.472 269.415 25.264C269.756 27.056 269.927 28.9333 269.927 30.896V53.296C269.927 58.416 269.031 63.536 267.239 68.656C265.532 73.6907 262.887 78.3413 259.303 82.608C255.804 86.7893 251.367 90.16 245.991 92.72C240.615 95.28 234.343 96.56 227.175 96.56ZM201.191 72.368V57.136H207.335C208.615 57.136 209.724 56.7093 210.663 55.856C211.602 55.0027 212.412 53.7227 213.095 52.016C213.863 50.224 214.418 48.048 214.759 45.488C215.186 42.8427 215.442 39.8133 215.527 36.4L215.783 30C215.868 28.1227 216.082 26.3733 216.423 24.752C216.85 23.0453 217.874 21.68 219.495 20.656C221.116 19.5467 223.847 18.992 227.687 18.992C231.612 18.992 234.386 19.5893 236.007 20.784C237.714 21.8933 238.738 23.3867 239.079 25.264C239.42 27.056 239.506 28.976 239.335 31.024L238.951 36.912C238.524 42.6293 237.756 47.7067 236.647 52.144C235.623 56.5813 234.044 60.2933 231.911 63.28C229.778 66.2667 226.919 68.528 223.335 70.064C219.751 71.6 215.271 72.368 209.895 72.368H201.191ZM363.928 95.152C360.088 95.152 357.357 94.64 355.736 93.616C354.115 92.5067 353.091 91.0987 352.664 89.392C352.323 87.6853 352.152 85.936 352.152 84.144V62.64C352.152 57.9467 351.597 54.1493 350.488 51.248C349.379 48.2613 347.629 46.0853 345.24 44.72C342.936 43.2693 339.907 42.544 336.152 42.544H317.848C315.885 42.544 313.965 42.3733 312.088 42.032C310.296 41.6907 308.803 40.7093 307.608 39.088C306.499 37.3813 305.944 34.608 305.944 30.768C305.944 26.8427 306.499 24.0693 307.608 22.448C308.803 20.8267 310.296 19.8453 312.088 19.504C313.965 19.1627 315.843 18.992 317.72 18.992H335.768C344.813 18.992 352.28 20.5707 358.168 23.728C364.056 26.8 368.408 31.536 371.224 37.936C374.125 44.336 375.576 52.4853 375.576 62.384V83.248C375.576 85.2107 375.405 87.1307 375.064 89.008C374.723 90.8 373.741 92.2933 372.12 93.488C370.584 94.5973 367.853 95.152 363.928 95.152ZM318.872 95.152C315.032 95.152 312.301 94.5973 310.68 93.488C309.059 92.2933 308.077 90.8 307.736 89.008C307.395 87.1307 307.224 85.2533 307.224 83.376V64.304C307.224 62.4267 307.395 60.592 307.736 58.8C308.077 57.008 309.059 55.5573 310.68 54.448C312.301 53.2533 315.075 52.656 319 52.656C322.925 52.656 325.656 53.2533 327.192 54.448C328.813 55.6427 329.795 57.136 330.136 58.928C330.477 60.72 330.648 62.5547 330.648 64.432V83.504C330.648 85.3813 330.477 87.216 330.136 89.008C329.795 90.8 328.813 92.2933 327.192 93.488C325.571 94.5973 322.797 95.152 318.872 95.152ZM398.814 94.384C394.633 92.08 392.158 89.648 391.39 87.088C390.622 84.4427 391.433 81.4133 393.822 78C396.553 74.16 399.155 70.32 401.63 66.48C404.105 62.5547 406.451 58.6293 408.67 54.704C410.974 50.6933 413.15 46.6827 415.198 42.672C417.331 38.576 419.337 34.48 421.214 30.384L439.006 44.976C436.617 50.5227 434.099 55.8987 431.454 61.104C428.894 66.224 426.163 71.1733 423.262 75.952C420.446 80.7307 417.502 85.3813 414.43 89.904C413.406 91.3547 412.254 92.7627 410.974 94.128C409.779 95.4933 408.201 96.304 406.238 96.56C404.361 96.816 401.886 96.0907 398.814 94.384ZM438.238 46.768L423.006 42.544H389.982C385.459 42.544 382.302 41.7333 380.51 40.112C378.718 38.4053 377.694 35.3333 377.438 30.896L376.542 11.824C376.457 9.86133 376.627 7.984 377.054 6.19199C377.481 4.4 378.547 2.94933 380.254 1.84C382.046 0.64533 384.862 0.0479965 388.702 0.0479965C392.627 0.0479965 395.315 0.64533 396.766 1.84C398.302 3.03466 399.198 4.52799 399.454 6.31999C399.71 8.11199 399.881 9.94666 399.966 11.824L400.35 18.992H423.902C428.595 18.992 432.35 20.3147 435.166 22.96C438.067 25.52 439.817 28.9333 440.414 33.2C441.097 37.3813 440.371 41.904 438.238 46.768ZM457.747 65.456C453.907 65.456 451.176 64.8587 449.555 63.664C447.934 62.4693 446.952 60.976 446.611 59.184C446.27 57.392 446.099 55.5573 446.099 53.68V30.64C446.099 28.7627 446.27 26.928 446.611 25.136C446.952 23.344 447.934 21.8933 449.555 20.784C451.176 19.5893 453.95 18.992 457.875 18.992C461.8 18.992 464.531 19.5893 466.067 20.784C467.688 21.9787 468.67 23.472 469.011 25.264C469.352 27.056 469.523 28.8907 469.523 30.768V53.808C469.523 55.6853 469.352 57.52 469.011 59.312C468.67 61.104 467.688 62.5973 466.067 63.792C464.446 64.9013 461.672 65.456 457.747 65.456ZM534.553 95.152C530.713 95.152 527.982 94.64 526.361 93.616C524.74 92.5067 523.716 91.0987 523.289 89.392C522.948 87.6853 522.777 85.936 522.777 84.144V62.64C522.777 57.9467 522.222 54.1493 521.113 51.248C520.004 48.2613 518.254 46.0853 515.865 44.72C513.561 43.2693 510.532 42.544 506.777 42.544H488.473C486.51 42.544 484.59 42.3733 482.713 42.032C480.921 41.6907 479.428 40.7093 478.233 39.088C477.124 37.3813 476.569 34.608 476.569 30.768C476.569 26.8427 477.124 24.0693 478.233 22.448C479.428 20.8267 480.921 19.8453 482.713 19.504C484.59 19.1627 486.468 18.992 488.345 18.992H506.393C515.438 18.992 522.905 20.5707 528.793 23.728C534.681 26.8 539.033 31.536 541.849 37.936C544.75 44.336 546.201 52.4853 546.201 62.384V83.248C546.201 85.2107 546.03 87.1307 545.689 89.008C545.348 90.8 544.366 92.2933 542.745 93.488C541.209 94.5973 538.478 95.152 534.553 95.152ZM489.497 95.152C485.657 95.152 482.926 94.5973 481.305 93.488C479.684 92.2933 478.702 90.8 478.361 89.008C478.02 87.1307 477.849 85.2533 477.849 83.376V64.304C477.849 62.4267 478.02 60.592 478.361 58.8C478.702 57.008 479.684 55.5573 481.305 54.448C482.926 53.2533 485.7 52.656 489.625 52.656C493.55 52.656 496.281 53.2533 497.817 54.448C499.438 55.6427 500.42 57.136 500.761 58.928C501.102 60.72 501.273 62.5547 501.273 64.432V83.504C501.273 85.3813 501.102 87.216 500.761 89.008C500.42 90.8 499.438 92.2933 497.817 93.488C496.196 94.5973 493.422 95.152 489.497 95.152ZM593.922 95.408C589.399 93.9573 586.455 92.08 585.09 89.776C583.81 87.472 583.895 84.4 585.346 80.56C586.711 77.0613 588.034 73.648 589.314 70.32C590.594 66.992 591.789 63.664 592.898 60.336C594.093 57.008 595.202 53.68 596.226 50.352C597.335 46.9387 598.402 43.5253 599.426 40.112C600.535 36.6987 601.645 33.2 602.754 29.616L622.722 43.44C621.869 46.512 620.973 49.5413 620.034 52.528C619.181 55.4293 618.285 58.3733 617.346 61.36C616.493 64.2613 615.597 67.1627 614.658 70.064C613.719 72.88 612.738 75.7387 611.714 78.64C610.69 81.5413 609.581 84.4853 608.386 87.472C607.703 89.1787 606.85 90.8427 605.826 92.464C604.802 94.0853 603.351 95.2373 601.474 95.92C599.682 96.6027 597.165 96.432 593.922 95.408ZM564.994 118.96C561.154 118.96 558.423 118.363 556.802 117.168C555.181 116.059 554.199 114.565 553.858 112.688C553.517 110.896 553.346 109.061 553.346 107.184V63.28C553.346 61.3173 553.517 59.4827 553.858 57.776C554.199 55.984 555.181 54.5333 556.802 53.424C558.423 52.2293 561.197 51.632 565.122 51.632C569.047 51.632 571.778 52.2293 573.314 53.424C574.935 54.5333 575.917 55.984 576.258 57.776C576.599 59.568 576.77 61.4453 576.77 63.408V107.312C576.77 109.189 576.599 111.024 576.258 112.816C575.917 114.608 574.935 116.059 573.314 117.168C571.693 118.363 568.919 118.96 564.994 118.96ZM621.826 46.512L601.474 42.416H596.866H564.098C562.135 42.416 560.215 42.2453 558.338 41.904C556.546 41.5627 555.053 40.5813 553.858 38.96C552.749 37.2533 552.194 34.48 552.194 30.64C552.194 26.7147 552.749 23.9413 553.858 22.32C555.053 20.6987 556.546 19.7173 558.338 19.376C560.215 19.0347 562.093 18.864 563.97 18.864L603.778 18.992C609.154 18.992 613.463 20.144 616.706 22.448C620.034 24.752 622.167 27.9947 623.106 32.176C624.045 36.272 623.618 41.0507 621.826 46.512ZM650.564 94.384C646.383 92.08 643.908 89.648 643.14 87.088C642.372 84.4427 643.183 81.4133 645.572 78C648.303 74.16 650.905 70.32 653.38 66.48C655.855 62.5547 658.201 58.6293 660.42 54.704C662.724 50.6933 664.9 46.6827 666.948 42.672C669.081 38.576 671.087 34.48 672.964 30.384L690.756 44.976C688.367 50.5227 685.849 55.8987 683.204 61.104C680.644 66.224 677.913 71.1733 675.012 75.952C672.196 80.7307 669.252 85.3813 666.18 89.904C665.156 91.3547 664.004 92.7627 662.724 94.128C661.529 95.4933 659.951 96.304 657.988 96.56C656.111 96.816 653.636 96.0907 650.564 94.384ZM689.988 46.768L674.756 42.544H641.732C637.209 42.544 634.052 41.7333 632.26 40.112C630.468 38.4053 629.444 35.3333 629.188 30.896L628.292 11.824C628.207 9.86133 628.377 7.984 628.804 6.19199C629.231 4.4 630.297 2.94933 632.004 1.84C633.796 0.64533 636.612 0.0479965 640.452 0.0479965C644.377 0.0479965 647.065 0.64533 648.516 1.84C650.052 3.03466 650.948 4.52799 651.204 6.31999C651.46 8.11199 651.631 9.94666 651.716 11.824L652.1 18.992H675.652C680.345 18.992 684.1 20.3147 686.916 22.96C689.817 25.52 691.567 28.9333 692.164 33.2C692.847 37.3813 692.121 41.904 689.988 46.768ZM738.598 95.152C736.635 95.152 734.715 94.9813 732.838 94.64C731.046 94.2987 729.553 93.3173 728.358 91.696C727.249 89.9893 726.694 87.216 726.694 83.376C726.694 79.4507 727.249 76.6773 728.358 75.056C729.553 73.4347 731.046 72.4533 732.838 72.112C734.715 71.7707 736.593 71.6 738.47 71.6H740.646V34.352L756.518 42.032C753.361 42.544 750.246 42.9707 747.174 43.312C744.102 43.568 741.329 43.5253 738.854 43.184C736.379 42.7573 734.417 41.8187 732.966 40.368C731.515 38.832 730.79 36.528 730.79 33.456C730.79 28.4213 731.985 24.8373 734.374 22.704C736.763 20.4853 740.731 19.3333 746.278 19.248L767.526 18.992C776.742 18.9067 784.379 20.4427 790.438 23.6C796.497 26.7573 801.019 31.5787 804.006 38.064C807.078 44.464 808.614 52.5707 808.614 62.384V83.248C808.614 85.2107 808.443 87.1307 808.102 89.008C807.761 90.8 806.779 92.2933 805.158 93.488C803.622 94.5973 800.891 95.152 796.966 95.152C793.126 95.152 790.395 94.64 788.774 93.616C787.153 92.5067 786.129 91.0987 785.702 89.392C785.361 87.6853 785.19 85.936 785.19 84.144V62.64C785.19 57.9467 784.593 54.1493 783.398 51.248C782.289 48.2613 780.539 46.0853 778.15 44.72C775.846 43.2693 772.817 42.544 769.062 42.544H764.326V81.072C764.326 85.5947 763.302 89.0933 761.254 91.568C759.206 93.9573 756.262 95.152 752.422 95.152H738.598ZM827.628 95.152C825.751 95.152 823.873 94.9813 821.996 94.64C820.204 94.2987 818.711 93.3173 817.516 91.696C816.407 90.0747 815.852 87.3013 815.852 83.376C815.852 79.4507 816.407 76.6773 817.516 75.056C818.711 73.4347 820.204 72.4533 821.996 72.112C823.873 71.7707 825.793 71.6 827.756 71.6H846.188C848.663 71.6 850.796 71.0453 852.588 69.936C854.38 68.8267 855.745 67.248 856.684 65.2C857.708 63.0667 858.22 60.5493 858.22 57.648V56.112C858.22 51.8453 857.239 48.5173 855.276 46.128C853.399 43.6533 850.711 42.416 847.212 42.416H840.428C839.063 42.416 837.953 42.7573 837.1 43.44C836.247 44.0373 835.777 44.7627 835.692 45.616C835.692 46.4693 836.204 47.3227 837.228 48.176C837.655 48.5173 838.081 48.8587 838.508 49.2C838.935 49.456 839.319 49.7547 839.66 50.096C841.281 51.2907 842.092 52.6987 842.092 54.32C842.092 55.9413 841.623 57.5627 840.684 59.184C839.831 60.8053 838.849 62.256 837.74 63.536C836.716 64.7307 835.948 65.5413 835.436 65.968C833.473 67.5893 831.34 68.272 829.036 68.016C826.817 67.76 824.641 66.8213 822.508 65.2C820.46 63.4933 818.711 61.232 817.26 58.416C815.809 55.6 814.913 52.4427 814.572 48.944C814.231 44.7627 814.7 40.88 815.98 37.296C817.26 33.6267 819.18 30.4267 821.74 27.696C824.385 24.88 827.543 22.704 831.212 21.168C834.881 19.632 838.892 18.864 843.244 18.864H846.828C854.081 18.864 860.311 20.3573 865.516 23.344C870.721 26.3307 874.732 30.5973 877.548 36.144C880.364 41.6053 881.772 48.1333 881.772 55.728V58.032C881.772 65.712 880.321 72.3253 877.42 77.872C874.519 83.4187 870.38 87.6853 865.004 90.672C859.628 93.6587 853.228 95.152 845.804 95.152H827.628ZM934.858 95.152C931.018 95.152 928.287 94.64 926.666 93.616C925.045 92.5067 924.021 91.0987 923.594 89.392C923.253 87.6853 923.082 85.936 923.082 84.144V62.64C923.082 59.1413 922.741 56.1547 922.058 53.68C921.461 51.12 920.479 49.0293 919.114 47.408C917.834 45.7013 916.17 44.464 914.122 43.696C912.159 42.928 909.77 42.544 906.954 42.544H895.946C893.983 42.544 892.063 42.3733 890.186 42.032C888.394 41.6907 886.901 40.7093 885.706 39.088C884.597 37.3813 884.042 34.608 884.042 30.768C884.042 26.8427 884.597 24.0693 885.706 22.448C886.901 20.8267 888.394 19.8453 890.186 19.504C891.978 19.1627 893.855 18.992 895.818 18.992H906.698C913.525 18.992 919.413 19.888 924.362 21.68C929.397 23.3867 933.535 26.032 936.778 29.616C940.021 33.2 942.453 37.7227 944.074 43.184C945.695 48.56 946.506 54.96 946.506 62.384V83.248C946.506 85.2107 946.335 87.1307 945.994 89.008C945.653 90.8 944.671 92.2933 943.05 93.488C941.514 94.5973 938.783 95.152 934.858 95.152ZM990.061 96.56C983.576 96.56 977.986 95.28 973.293 92.72C968.685 90.0747 964.888 86.6187 961.901 82.352C958.914 78.0853 956.696 73.4347 955.245 68.4C953.794 63.28 953.069 58.2027 953.069 53.168V30.768C953.069 28.8053 953.24 26.928 953.581 25.136C953.922 23.344 954.904 21.8933 956.525 20.784C958.146 19.5893 960.92 18.992 964.845 18.992C968.77 18.992 971.544 19.5893 973.165 20.784C974.786 21.8933 975.768 23.344 976.109 25.136C976.45 26.928 976.621 28.848 976.621 30.896V53.168C976.621 59.9947 977.73 65.0293 979.949 68.272C982.168 71.4293 985.666 73.008 990.445 73.008C995.48 73.008 999.064 71.4293 1001.2 68.272C1003.33 65.1147 1004.31 60.0373 1004.14 53.04C1004.06 49.7973 1003.25 47.2373 1001.71 45.36C1000.17 43.4827 998.04 42.544 995.309 42.544H993.773C991.81 42.544 990.018 42.3733 988.397 42.032C986.776 41.6907 985.496 40.7093 984.557 39.088C983.618 37.3813 983.149 34.608 983.149 30.768C983.149 26.8427 983.704 24.0693 984.813 22.448C986.008 20.8267 987.501 19.8453 989.293 19.504C991.085 19.1627 992.962 18.992 994.925 18.992H996.205C1002.61 18.992 1008.15 20.6133 1012.85 23.856C1017.62 27.0987 1021.29 31.6213 1023.85 37.424C1026.41 43.2267 1027.57 49.968 1027.31 57.648C1027.31 63.1093 1026.37 68.2293 1024.49 73.008C1022.62 77.7013 1019.97 81.84 1016.56 85.424C1013.14 88.9227 1009.18 91.6533 1004.65 93.616C1000.22 95.5787 995.352 96.56 990.061 96.56ZM1080.39 95.152L1067.34 80.304L1032.39 35.888C1030.09 32.816 1029.36 30.0853 1030.22 27.696C1031.15 25.3067 1033.2 23.0453 1036.36 20.912C1039.6 18.608 1042.2 17.4987 1044.17 17.584C1046.13 17.584 1047.75 18.224 1049.03 19.504C1050.4 20.6987 1051.63 22.1067 1052.74 23.728L1085.77 67.12C1086.71 68.2293 1087.52 69.2533 1088.2 70.192C1088.88 71.1307 1089.56 72.1973 1090.25 73.392C1091.53 75.5253 1092.17 77.9147 1092.17 80.56C1092.17 83.12 1091.66 85.552 1090.63 87.856C1089.69 90.0747 1088.33 91.9093 1086.54 93.36C1084.74 94.7253 1082.7 95.3227 1080.39 95.152ZM1040.07 95.152C1038.11 95.152 1036.19 94.9813 1034.31 94.64C1032.52 94.2987 1031.03 93.3173 1029.83 91.696C1028.72 89.9893 1028.17 87.216 1028.17 83.376C1028.17 79.4507 1028.72 76.6773 1029.83 75.056C1031.03 73.4347 1032.52 72.4533 1034.31 72.112C1036.1 71.7707 1037.98 71.6 1039.94 71.6H1080.78L1082.18 95.152H1040.07ZM1075.78 71.472L1060.17 56.368L1074.89 24.24C1075.91 22.6187 1076.98 21.168 1078.09 19.888C1079.28 18.608 1080.86 17.9253 1082.82 17.84C1084.79 17.6693 1087.47 18.5653 1090.89 20.528C1094.22 22.4053 1096.26 24.2827 1097.03 26.16C1097.8 27.952 1097.84 29.744 1097.16 31.536C1096.56 33.2427 1095.79 34.9493 1094.86 36.656L1075.78 71.472ZM1160.3 95.152C1156.46 95.152 1153.73 94.64 1152.11 93.616C1150.49 92.5067 1149.47 91.0987 1149.04 89.392C1148.7 87.6853 1148.53 85.936 1148.53 84.144V62.64C1148.53 57.9467 1147.97 54.1493 1146.86 51.248C1145.75 48.2613 1144 46.0853 1141.62 44.72C1139.31 43.2693 1136.28 42.544 1132.53 42.544H1114.22C1112.26 42.544 1110.34 42.3733 1108.46 42.032C1106.67 41.6907 1105.18 40.7093 1103.98 39.088C1102.87 37.3813 1102.32 34.608 1102.32 30.768C1102.32 26.8427 1102.87 24.0693 1103.98 22.448C1105.18 20.8267 1106.67 19.8453 1108.46 19.504C1110.34 19.1627 1112.22 18.992 1114.1 18.992H1132.14C1141.19 18.992 1148.66 20.5707 1154.54 23.728C1160.43 26.8 1164.78 31.536 1167.6 37.936C1170.5 44.336 1171.95 52.4853 1171.95 62.384V83.248C1171.95 85.2107 1171.78 87.1307 1171.44 89.008C1171.1 90.8 1170.12 92.2933 1168.5 93.488C1166.96 94.5973 1164.23 95.152 1160.3 95.152ZM1115.25 95.152C1111.41 95.152 1108.68 94.5973 1107.06 93.488C1105.43 92.2933 1104.45 90.8 1104.11 89.008C1103.77 87.1307 1103.6 85.2533 1103.6 83.376V64.304C1103.6 62.4267 1103.77 60.592 1104.11 58.8C1104.45 57.008 1105.43 55.5573 1107.06 54.448C1108.68 53.2533 1111.45 52.656 1115.38 52.656C1119.3 52.656 1122.03 53.2533 1123.57 54.448C1125.19 55.6427 1126.17 57.136 1126.51 58.928C1126.85 60.72 1127.02 62.5547 1127.02 64.432V83.504C1127.02 85.3813 1126.85 87.216 1126.51 89.008C1126.17 90.8 1125.19 92.2933 1123.57 93.488C1121.95 94.5973 1119.17 95.152 1115.25 95.152Z" fill="#409DC5"/>
</svg>
