<svg width="1201" height="97" viewBox="0 0 1201 97" fill="none" xmlns="http://www.w3.org/2000/svg">
<path d="M13.247 63.792C9.407 63.792 6.67633 63.28 5.055 62.256C3.43367 61.232 2.45233 59.952 2.111 58.416C1.76967 56.7947 1.599 55.1307 1.599 53.424V15.664C1.599 13.9573 1.76967 12.2933 2.111 10.672C2.45233 9.05066 3.43367 7.728 5.055 6.70399C6.67633 5.59466 9.44967 5.03999 13.375 5.03999C17.3003 5.03999 20.031 5.59466 21.567 6.70399C23.1883 7.728 24.1697 9.09333 24.511 10.8C24.8523 12.4213 25.023 14.0853 25.023 15.792V53.552C25.023 55.2587 24.8523 56.9227 24.511 58.544C24.1697 60.08 23.1883 61.36 21.567 62.384C19.9457 63.3227 17.1723 63.792 13.247 63.792ZM13.247 95.28C8.29767 95.28 5.01233 94.3413 3.391 92.464C1.76967 90.5013 0.959 87.3013 0.959 82.864C0.959 80.9867 1.12967 79.1093 1.471 77.232C1.89767 75.3547 2.96433 73.8187 4.671 72.624C6.37767 71.344 9.279 70.704 13.375 70.704C18.4097 70.704 21.695 71.6427 23.231 73.52C24.767 75.3973 25.535 78.5973 25.535 83.12C25.535 84.9973 25.3643 86.8747 25.023 88.752C24.6817 90.6293 23.6577 92.208 21.951 93.488C20.2443 94.6827 17.343 95.28 13.247 95.28ZM73.925 96.56C66.9277 96.56 60.7837 95.28 55.493 92.72C50.2877 90.0747 45.9357 86.6187 42.437 82.352C38.9383 78.0853 36.3357 73.392 34.629 68.272C32.9223 63.152 32.069 58.0747 32.069 53.04V30.768C32.069 28.8053 32.2397 26.928 32.581 25.136C32.9223 23.344 33.9037 21.8933 35.525 20.784C37.1463 19.5893 39.9197 18.992 43.845 18.992C47.7703 18.992 50.5437 19.5893 52.165 20.784C53.7863 21.8933 54.7677 23.344 55.109 25.136C55.4503 26.928 55.621 28.848 55.621 30.896V53.04C55.621 57.392 56.3037 61.0613 57.669 64.048C59.1197 66.9493 61.2103 69.168 63.941 70.704C66.757 72.24 70.1703 73.008 74.181 73.008C79.1303 73.008 82.9703 72.0693 85.701 70.192C88.4317 68.3147 90.3517 65.84 91.461 62.768C92.5703 59.696 93.125 56.4107 93.125 52.912V30.128C93.125 28.2507 93.2957 26.5013 93.637 24.88C94.0637 23.1733 95.0877 21.7653 96.709 20.656C98.4157 19.5467 101.146 18.992 104.901 18.992C108.826 18.992 111.6 19.5893 113.221 20.784C114.842 21.9787 115.824 23.472 116.165 25.264C116.506 27.056 116.677 28.9333 116.677 30.896V53.296C116.677 58.416 115.781 63.536 113.989 68.656C112.282 73.6907 109.637 78.3413 106.053 82.608C102.554 86.7893 98.117 90.16 92.741 92.72C87.365 95.28 81.093 96.56 73.925 96.56ZM47.941 72.368V57.136H54.085C55.365 57.136 56.4743 56.7093 57.413 55.856C58.3517 55.0027 59.1623 53.7227 59.845 52.016C60.613 50.224 61.1677 48.048 61.509 45.488C61.9357 42.8427 62.1917 39.8133 62.277 36.4L62.533 30C62.6183 28.1227 62.8317 26.3733 63.173 24.752C63.5997 23.0453 64.6237 21.68 66.245 20.656C67.8663 19.5467 70.597 18.992 74.437 18.992C78.3623 18.992 81.1357 19.5893 82.757 20.784C84.4637 21.8933 85.4877 23.3867 85.829 25.264C86.1703 27.056 86.2557 28.976 86.085 31.024L85.701 36.912C85.2743 42.6293 84.5063 47.7067 83.397 52.144C82.373 56.5813 80.7943 60.2933 78.661 63.28C76.5277 66.2667 73.669 68.528 70.085 70.064C66.501 71.6 62.021 72.368 56.645 72.368H47.941ZM163.401 95.152C159.561 95.152 156.83 94.64 155.209 93.616C153.673 92.5067 152.734 91.1413 152.393 89.52C152.052 87.8133 151.753 86.064 151.497 84.272L148.297 61.616C147.956 59.1413 147.7 56.752 147.529 54.448C147.358 52.0587 147.06 49.9253 146.633 48.048C146.206 46.0853 145.481 44.5493 144.457 43.44C143.433 42.2453 141.854 41.648 139.721 41.648C137.844 41.648 136.265 41.6053 134.985 41.52C133.79 41.4347 132.681 41.0933 131.657 40.496C130.462 39.728 129.566 38.6613 128.969 37.296C128.457 35.8453 128.244 34.0533 128.329 31.92L128.713 25.904C128.884 23.1733 129.652 21.2533 131.017 20.144C132.468 18.9493 135.284 18.4373 139.465 18.608C139.55 18.608 140.062 18.6507 141.001 18.736C142.025 18.736 142.58 18.736 142.665 18.736C148.382 18.9067 152.905 19.9733 156.233 21.936C159.646 23.8987 162.249 26.5867 164.041 30C165.833 33.328 167.156 37.2107 168.009 41.648C168.948 46 169.844 50.736 170.697 55.856L175.049 83.12C175.732 87.3013 175.134 90.3733 173.257 92.336C171.465 94.2133 168.18 95.152 163.401 95.152ZM134.345 94.64C131.785 94.9813 129.481 95.024 127.433 94.768C125.385 94.5973 123.721 93.8293 122.441 92.464C121.246 91.0133 120.564 88.7093 120.393 85.552C120.137 80.7733 120.564 77.488 121.673 75.696C122.782 73.8187 125.044 72.8373 128.457 72.752C130.846 72.6667 133.065 72.368 135.113 71.856C137.246 71.2587 139.337 70.5333 141.385 69.68C143.433 68.7413 145.481 67.7173 147.529 66.608C149.662 65.4133 151.881 64.176 154.185 62.896C156.489 61.5307 158.964 60.208 161.609 58.928L161.737 71.472C159.774 73.52 157.94 75.568 156.233 77.616C154.612 79.664 153.033 81.6267 151.497 83.504C149.961 85.296 148.34 86.96 146.633 88.496C145.012 90.032 143.177 91.3547 141.129 92.464C139.166 93.488 136.905 94.2133 134.345 94.64ZM193.253 95.152C191.376 95.152 189.498 94.9813 187.621 94.64C185.829 94.2987 184.336 93.3173 183.141 91.696C182.032 90.0747 181.477 87.3013 181.477 83.376C181.477 79.4507 182.032 76.6773 183.141 75.056C184.336 73.4347 185.829 72.4533 187.621 72.112C189.498 71.7707 191.418 71.6 193.381 71.6H211.813C214.288 71.6 216.421 71.0453 218.213 69.936C220.005 68.8267 221.37 67.248 222.309 65.2C223.333 63.0667 223.845 60.5493 223.845 57.648V56.112C223.845 51.8453 222.864 48.5173 220.901 46.128C219.024 43.6533 216.336 42.416 212.837 42.416H206.053C204.688 42.416 203.578 42.7573 202.725 43.44C201.872 44.0373 201.402 44.7627 201.317 45.616C201.317 46.4693 201.829 47.3227 202.853 48.176C203.28 48.5173 203.706 48.8587 204.133 49.2C204.56 49.456 204.944 49.7547 205.285 50.096C206.906 51.2907 207.717 52.6987 207.717 54.32C207.717 55.9413 207.248 57.5627 206.309 59.184C205.456 60.8053 204.474 62.256 203.365 63.536C202.341 64.7307 201.573 65.5413 201.061 65.968C199.098 67.5893 196.965 68.272 194.661 68.016C192.442 67.76 190.266 66.8213 188.133 65.2C186.085 63.4933 184.336 61.232 182.885 58.416C181.434 55.6 180.538 52.4427 180.197 48.944C179.856 44.7627 180.325 40.88 181.605 37.296C182.885 33.6267 184.805 30.4267 187.365 27.696C190.01 24.88 193.168 22.704 196.837 21.168C200.506 19.632 204.517 18.864 208.869 18.864H212.453C219.706 18.864 225.936 20.3573 231.141 23.344C236.346 26.3307 240.357 30.5973 243.173 36.144C245.989 41.6053 247.397 48.1333 247.397 55.728V58.032C247.397 65.712 245.946 72.3253 243.045 77.872C240.144 83.4187 236.005 87.6853 230.629 90.672C225.253 93.6587 218.853 95.152 211.429 95.152H193.253ZM329.863 61.616V83.376C329.863 87.0453 329.65 89.7333 329.223 91.44C328.796 93.0613 327.772 94.0853 326.151 94.512C324.53 94.9387 321.884 95.152 318.215 95.152H296.967C295.09 95.152 293.212 94.9813 291.335 94.64C289.543 94.2987 288.05 93.3173 286.855 91.696C285.746 90.0747 285.191 87.3013 285.191 83.376C285.191 79.4507 285.746 76.6773 286.855 75.056C288.05 73.4347 289.543 72.4533 291.335 72.112C293.212 71.7707 295.132 71.6 297.095 71.6H306.439V62C306.439 57.2213 306.098 53.3813 305.415 50.48C304.732 47.4933 303.666 45.3173 302.215 43.952C300.85 42.5867 299.015 41.904 296.711 41.904C293.639 41.904 291.207 42.544 289.415 43.824C287.623 45.104 286.258 46.768 285.319 48.816C284.38 50.7787 283.655 52.9547 283.143 55.344C282.716 57.648 282.29 59.8667 281.863 62L278.151 83.504C277.81 85.3813 277.468 87.216 277.127 89.008C276.871 90.8 275.975 92.2933 274.439 93.488C272.903 94.5973 270.172 95.152 266.247 95.152C261.383 95.152 258.055 94.2133 256.263 92.336C254.471 90.4587 253.959 87.4293 254.727 83.248L260.615 48.56L268.807 58.416C270.343 55.0027 271.58 51.4613 272.519 47.792C273.458 44.0373 274.439 40.4107 275.463 36.912C276.487 33.4133 277.938 30.2987 279.815 27.568C281.692 24.752 284.295 22.5333 287.623 20.912C291.036 19.2053 295.602 18.352 301.319 18.352C307.463 18.352 312.626 20.0587 316.807 23.472C321.074 26.8 324.316 31.664 326.535 38.064C328.754 44.464 329.863 52.3147 329.863 61.616ZM263.815 71.728L254.215 33.456C253.788 31.4933 253.532 29.616 253.447 27.824C253.362 25.9467 253.959 24.2827 255.239 22.832C256.604 21.296 259.207 20.1013 263.047 19.248C266.802 18.48 269.575 18.48 271.367 19.248C273.244 20.016 274.524 21.2107 275.207 22.832C275.975 24.368 276.572 26.032 276.999 27.824L282.503 53.936L263.815 71.728ZM357.689 94.384C353.508 92.08 351.033 89.648 350.265 87.088C349.497 84.4427 350.308 81.4133 352.697 78C355.428 74.16 358.03 70.32 360.505 66.48C362.98 62.5547 365.326 58.6293 367.545 54.704C369.849 50.6933 372.025 46.6827 374.073 42.672C376.206 38.576 378.212 34.48 380.089 30.384L397.881 44.976C395.492 50.5227 392.974 55.8987 390.329 61.104C387.769 66.224 385.038 71.1733 382.137 75.952C379.321 80.7307 376.377 85.3813 373.305 89.904C372.281 91.3547 371.129 92.7627 369.849 94.128C368.654 95.4933 367.076 96.304 365.113 96.56C363.236 96.816 360.761 96.0907 357.689 94.384ZM397.113 46.768L381.881 42.544H348.857C344.334 42.544 341.177 41.7333 339.385 40.112C337.593 38.4053 336.569 35.3333 336.313 30.896L335.417 11.824C335.332 9.86133 335.502 7.984 335.929 6.19199C336.356 4.4 337.422 2.94933 339.129 1.84C340.921 0.64533 343.737 0.0479965 347.577 0.0479965C351.502 0.0479965 354.19 0.64533 355.641 1.84C357.177 3.03466 358.073 4.52799 358.329 6.31999C358.585 8.11199 358.756 9.94666 358.841 11.824L359.225 18.992H382.777C387.47 18.992 391.225 20.3147 394.041 22.96C396.942 25.52 398.692 28.9333 399.289 33.2C399.972 37.3813 399.246 41.904 397.113 46.768ZM445.723 95.152C443.76 95.152 441.84 94.9813 439.963 94.64C438.171 94.2987 436.678 93.3173 435.483 91.696C434.374 89.9893 433.819 87.216 433.819 83.376C433.819 79.4507 434.374 76.6773 435.483 75.056C436.678 73.4347 438.171 72.4533 439.963 72.112C441.84 71.7707 443.718 71.6 445.595 71.6H447.771V34.352L463.643 42.032C460.486 42.544 457.371 42.9707 454.299 43.312C451.227 43.568 448.454 43.5253 445.979 43.184C443.504 42.7573 441.542 41.8187 440.091 40.368C438.64 38.832 437.915 36.528 437.915 33.456C437.915 28.4213 439.11 24.8373 441.499 22.704C443.888 20.4853 447.856 19.3333 453.403 19.248L474.651 18.992C483.867 18.9067 491.504 20.4427 497.563 23.6C503.622 26.7573 508.144 31.5787 511.131 38.064C514.203 44.464 515.739 52.5707 515.739 62.384V83.248C515.739 85.2107 515.568 87.1307 515.227 89.008C514.886 90.8 513.904 92.2933 512.283 93.488C510.747 94.5973 508.016 95.152 504.091 95.152C500.251 95.152 497.52 94.64 495.899 93.616C494.278 92.5067 493.254 91.0987 492.827 89.392C492.486 87.6853 492.315 85.936 492.315 84.144V62.64C492.315 57.9467 491.718 54.1493 490.523 51.248C489.414 48.2613 487.664 46.0853 485.275 44.72C482.971 43.2693 479.942 42.544 476.187 42.544H471.451V81.072C471.451 85.5947 470.427 89.0933 468.379 91.568C466.331 93.9573 463.387 95.152 459.547 95.152H445.723ZM598.113 61.616V83.376C598.113 87.0453 597.9 89.7333 597.473 91.44C597.046 93.0613 596.022 94.0853 594.401 94.512C592.78 94.9387 590.134 95.152 586.465 95.152H565.217C563.34 95.152 561.462 94.9813 559.585 94.64C557.793 94.2987 556.3 93.3173 555.105 91.696C553.996 90.0747 553.441 87.3013 553.441 83.376C553.441 79.4507 553.996 76.6773 555.105 75.056C556.3 73.4347 557.793 72.4533 559.585 72.112C561.462 71.7707 563.382 71.6 565.345 71.6H574.689V62C574.689 57.2213 574.348 53.3813 573.665 50.48C572.982 47.4933 571.916 45.3173 570.465 43.952C569.1 42.5867 567.265 41.904 564.961 41.904C561.889 41.904 559.457 42.544 557.665 43.824C555.873 45.104 554.508 46.768 553.569 48.816C552.63 50.7787 551.905 52.9547 551.393 55.344C550.966 57.648 550.54 59.8667 550.113 62L546.401 83.504C546.06 85.3813 545.718 87.216 545.377 89.008C545.121 90.8 544.225 92.2933 542.689 93.488C541.153 94.5973 538.422 95.152 534.497 95.152C529.633 95.152 526.305 94.2133 524.513 92.336C522.721 90.4587 522.209 87.4293 522.977 83.248L528.865 48.56L537.057 58.416C538.593 55.0027 539.83 51.4613 540.769 47.792C541.708 44.0373 542.689 40.4107 543.713 36.912C544.737 33.4133 546.188 30.2987 548.065 27.568C549.942 24.752 552.545 22.5333 555.873 20.912C559.286 19.2053 563.852 18.352 569.569 18.352C575.713 18.352 580.876 20.0587 585.057 23.472C589.324 26.8 592.566 31.664 594.785 38.064C597.004 44.464 598.113 52.3147 598.113 61.616ZM532.065 71.728L522.465 33.456C522.038 31.4933 521.782 29.616 521.697 27.824C521.612 25.9467 522.209 24.2827 523.489 22.832C524.854 21.296 527.457 20.1013 531.297 19.248C535.052 18.48 537.825 18.48 539.617 19.248C541.494 20.016 542.774 21.2107 543.457 22.832C544.225 24.368 544.822 26.032 545.249 27.824L550.753 53.936L532.065 71.728ZM646.675 96.56C639.678 96.56 633.534 95.28 628.243 92.72C623.038 90.0747 618.686 86.6187 615.187 82.352C611.688 78.0853 609.086 73.392 607.379 68.272C605.672 63.152 604.819 58.0747 604.819 53.04V30.768C604.819 28.8053 604.99 26.928 605.331 25.136C605.672 23.344 606.654 21.8933 608.275 20.784C609.896 19.5893 612.67 18.992 616.595 18.992C620.52 18.992 623.294 19.5893 624.915 20.784C626.536 21.8933 627.518 23.344 627.859 25.136C628.2 26.928 628.371 28.848 628.371 30.896V53.04C628.371 57.392 629.054 61.0613 630.419 64.048C631.87 66.9493 633.96 69.168 636.691 70.704C639.507 72.24 642.92 73.008 646.931 73.008C651.88 73.008 655.72 72.0693 658.451 70.192C661.182 68.3147 663.102 65.84 664.211 62.768C665.32 59.696 665.875 56.4107 665.875 52.912V30.128C665.875 28.2507 666.046 26.5013 666.387 24.88C666.814 23.1733 667.838 21.7653 669.459 20.656C671.166 19.5467 673.896 18.992 677.651 18.992C681.576 18.992 684.35 19.5893 685.971 20.784C687.592 21.9787 688.574 23.472 688.915 25.264C689.256 27.056 689.427 28.9333 689.427 30.896V53.296C689.427 58.416 688.531 63.536 686.739 68.656C685.032 73.6907 682.387 78.3413 678.803 82.608C675.304 86.7893 670.867 90.16 665.491 92.72C660.115 95.28 653.843 96.56 646.675 96.56ZM620.691 72.368V57.136H626.835C628.115 57.136 629.224 56.7093 630.163 55.856C631.102 55.0027 631.912 53.7227 632.595 52.016C633.363 50.224 633.918 48.048 634.259 45.488C634.686 42.8427 634.942 39.8133 635.027 36.4L635.283 30C635.368 28.1227 635.582 26.3733 635.923 24.752C636.35 23.0453 637.374 21.68 638.995 20.656C640.616 19.5467 643.347 18.992 647.187 18.992C651.112 18.992 653.886 19.5893 655.507 20.784C657.214 21.8933 658.238 23.3867 658.579 25.264C658.92 27.056 659.006 28.976 658.835 31.024L658.451 36.912C658.024 42.6293 657.256 47.7067 656.147 52.144C655.123 56.5813 653.544 60.2933 651.411 63.28C649.278 66.2667 646.419 68.528 642.835 70.064C639.251 71.6 634.771 72.368 629.395 72.368H620.691ZM744.983 95.152C741.143 95.152 738.412 94.64 736.791 93.616C735.17 92.5067 734.146 91.0987 733.719 89.392C733.378 87.6853 733.207 85.936 733.207 84.144V62.64C733.207 59.1413 732.866 56.1547 732.183 53.68C731.586 51.12 730.604 49.0293 729.239 47.408C727.959 45.7013 726.295 44.464 724.247 43.696C722.284 42.928 719.895 42.544 717.079 42.544H706.071C704.108 42.544 702.188 42.3733 700.311 42.032C698.519 41.6907 697.026 40.7093 695.831 39.088C694.722 37.3813 694.167 34.608 694.167 30.768C694.167 26.8427 694.722 24.0693 695.831 22.448C697.026 20.8267 698.519 19.8453 700.311 19.504C702.103 19.1627 703.98 18.992 705.943 18.992H716.823C723.65 18.992 729.538 19.888 734.487 21.68C739.522 23.3867 743.66 26.032 746.903 29.616C750.146 33.2 752.578 37.7227 754.199 43.184C755.82 48.56 756.631 54.96 756.631 62.384V83.248C756.631 85.2107 756.46 87.1307 756.119 89.008C755.778 90.8 754.796 92.2933 753.175 93.488C751.639 94.5973 748.908 95.152 744.983 95.152ZM800.314 95.152C796.559 95.152 793.829 94.64 792.122 93.616C790.501 92.5067 789.477 91.0987 789.05 89.392C788.709 87.6853 788.538 85.936 788.538 84.144V59.184C788.538 55.2587 788.154 52.1013 787.386 49.712C786.703 47.2373 785.637 45.4453 784.186 44.336C782.735 43.1413 780.815 42.544 778.426 42.544H776.89C774.927 42.544 773.007 42.3733 771.13 42.032C769.338 41.6907 767.845 40.7093 766.65 39.088C765.541 37.3813 764.986 34.608 764.986 30.768C764.986 26.8427 765.541 24.0693 766.65 22.448C767.845 20.8267 769.338 19.8453 771.13 19.504C773.007 19.1627 774.885 18.992 776.762 18.992H778.17C785.85 18.992 792.207 20.4427 797.242 23.344C802.277 26.16 805.989 30.512 808.378 36.4C810.853 42.288 812.09 49.7547 812.09 58.8V83.248C812.09 85.2107 811.919 87.1307 811.578 89.008C811.237 90.8 810.255 92.2933 808.634 93.488C807.013 94.5973 804.239 95.152 800.314 95.152ZM774.586 95.152C772.623 95.152 770.703 94.9813 768.826 94.64C767.034 94.2987 765.541 93.3173 764.346 91.696C763.237 89.9893 762.682 87.216 762.682 83.376C762.682 79.4507 763.237 76.6773 764.346 75.056C765.541 73.4347 767.034 72.4533 768.826 72.112C770.618 71.7707 772.495 71.6 774.458 71.6H801.722L801.594 95.152H774.586ZM860.3 96.56C853.303 96.56 847.159 95.28 841.868 92.72C836.663 90.0747 832.311 86.6187 828.812 82.352C825.313 78.0853 822.711 73.392 821.004 68.272C819.297 63.152 818.444 58.0747 818.444 53.04V30.768C818.444 28.8053 818.615 26.928 818.956 25.136C819.297 23.344 820.279 21.8933 821.9 20.784C823.521 19.5893 826.295 18.992 830.22 18.992C834.145 18.992 836.919 19.5893 838.54 20.784C840.161 21.8933 841.143 23.344 841.484 25.136C841.825 26.928 841.996 28.848 841.996 30.896V53.04C841.996 57.392 842.679 61.0613 844.044 64.048C845.495 66.9493 847.585 69.168 850.316 70.704C853.132 72.24 856.545 73.008 860.556 73.008C865.505 73.008 869.345 72.0693 872.076 70.192C874.807 68.3147 876.727 65.84 877.836 62.768C878.945 59.696 879.5 56.4107 879.5 52.912V30.128C879.5 28.2507 879.671 26.5013 880.012 24.88C880.439 23.1733 881.463 21.7653 883.084 20.656C884.791 19.5467 887.521 18.992 891.276 18.992C895.201 18.992 897.975 19.5893 899.596 20.784C901.217 21.9787 902.199 23.472 902.54 25.264C902.881 27.056 903.052 28.9333 903.052 30.896V53.296C903.052 58.416 902.156 63.536 900.364 68.656C898.657 73.6907 896.012 78.3413 892.428 82.608C888.929 86.7893 884.492 90.16 879.116 92.72C873.74 95.28 867.468 96.56 860.3 96.56ZM834.316 72.368V57.136H840.46C841.74 57.136 842.849 56.7093 843.788 55.856C844.727 55.0027 845.537 53.7227 846.22 52.016C846.988 50.224 847.543 48.048 847.884 45.488C848.311 42.8427 848.567 39.8133 848.652 36.4L848.908 30C848.993 28.1227 849.207 26.3733 849.548 24.752C849.975 23.0453 850.999 21.68 852.62 20.656C854.241 19.5467 856.972 18.992 860.812 18.992C864.737 18.992 867.511 19.5893 869.132 20.784C870.839 21.8933 871.863 23.3867 872.204 25.264C872.545 27.056 872.631 28.976 872.46 31.024L872.076 36.912C871.649 42.6293 870.881 47.7067 869.772 52.144C868.748 56.5813 867.169 60.2933 865.036 63.28C862.903 66.2667 860.044 68.528 856.46 70.064C852.876 71.6 848.396 72.368 843.02 72.368H834.316ZM997.053 95.152C993.213 95.152 990.482 94.64 988.861 93.616C987.24 92.5067 986.216 91.0987 985.789 89.392C985.448 87.6853 985.277 85.936 985.277 84.144V62.64C985.277 57.9467 984.722 54.1493 983.613 51.248C982.504 48.2613 980.754 46.0853 978.365 44.72C976.061 43.2693 973.032 42.544 969.277 42.544H950.973C949.01 42.544 947.09 42.3733 945.213 42.032C943.421 41.6907 941.928 40.7093 940.733 39.088C939.624 37.3813 939.069 34.608 939.069 30.768C939.069 26.8427 939.624 24.0693 940.733 22.448C941.928 20.8267 943.421 19.8453 945.213 19.504C947.09 19.1627 948.968 18.992 950.845 18.992H968.893C977.938 18.992 985.405 20.5707 991.293 23.728C997.181 26.8 1001.53 31.536 1004.35 37.936C1007.25 44.336 1008.7 52.4853 1008.7 62.384V83.248C1008.7 85.2107 1008.53 87.1307 1008.19 89.008C1007.85 90.8 1006.87 92.2933 1005.25 93.488C1003.71 94.5973 1000.98 95.152 997.053 95.152ZM951.997 95.152C948.157 95.152 945.426 94.5973 943.805 93.488C942.184 92.2933 941.202 90.8 940.861 89.008C940.52 87.1307 940.349 85.2533 940.349 83.376V64.304C940.349 62.4267 940.52 60.592 940.861 58.8C941.202 57.008 942.184 55.5573 943.805 54.448C945.426 53.2533 948.2 52.656 952.125 52.656C956.05 52.656 958.781 53.2533 960.317 54.448C961.938 55.6427 962.92 57.136 963.261 58.928C963.602 60.72 963.773 62.5547 963.773 64.432V83.504C963.773 85.3813 963.602 87.216 963.261 89.008C962.92 90.8 961.938 92.2933 960.317 93.488C958.696 94.5973 955.922 95.152 951.997 95.152ZM1022.72 42.544C1020.76 42.544 1018.84 42.3733 1016.96 42.032C1015.17 41.6907 1013.68 40.7093 1012.48 39.088C1011.37 37.3813 1010.82 34.608 1010.82 30.768C1010.82 26.8427 1011.37 24.0693 1012.48 22.448C1013.68 20.8267 1015.17 19.8453 1016.96 19.504C1018.84 19.1627 1020.72 18.992 1022.6 18.992H1068.68C1070.64 18.992 1072.52 19.1627 1074.31 19.504C1076.1 19.8453 1077.55 20.8267 1078.66 22.448C1079.85 24.0693 1080.45 26.8427 1080.45 30.768C1080.45 34.608 1079.85 37.3813 1078.66 39.088C1077.55 40.7093 1076.1 41.6907 1074.31 42.032C1072.52 42.3733 1070.6 42.544 1068.55 42.544H1022.72ZM1055.88 95.152C1052.04 95.152 1049.3 94.5973 1047.68 93.488C1046.06 92.2933 1045.08 90.8 1044.74 89.008C1044.4 87.1307 1044.23 85.2107 1044.23 83.248V36.272L1067.65 38.448V84.144C1067.65 85.936 1067.48 87.6853 1067.14 89.392C1066.8 91.0987 1065.77 92.5067 1064.07 93.616C1062.45 94.64 1059.72 95.152 1055.88 95.152ZM1099.37 95.152C1095.53 95.152 1092.8 94.5973 1091.18 93.488C1089.56 92.2933 1088.58 90.8 1088.24 89.008C1087.89 87.1307 1087.72 85.2533 1087.72 83.376V30.64C1087.72 28.7627 1087.89 26.928 1088.24 25.136C1088.58 23.344 1089.56 21.8933 1091.18 20.784C1092.8 19.5893 1095.57 18.992 1099.5 18.992C1103.43 18.992 1106.16 19.5893 1107.69 20.784C1109.31 21.9787 1110.29 23.472 1110.64 25.264C1110.98 27.056 1111.15 28.8907 1111.15 30.768V83.504C1111.15 85.3813 1110.98 87.216 1110.64 89.008C1110.29 90.8 1109.31 92.2933 1107.69 93.488C1106.07 94.5973 1103.3 95.152 1099.37 95.152ZM1130.1 95.152C1128.14 95.152 1126.22 94.9813 1124.34 94.64C1122.55 94.2987 1121.05 93.3173 1119.86 91.696C1118.75 89.9893 1118.19 87.216 1118.19 83.376C1118.19 79.4507 1118.75 76.6773 1119.86 75.056C1121.05 73.4347 1122.55 72.4533 1124.34 72.112C1126.22 71.7707 1128.09 71.6 1129.97 71.6H1132.15V34.352L1148.02 42.032C1144.86 42.544 1141.75 42.9707 1138.67 43.312C1135.6 43.568 1132.83 43.5253 1130.35 43.184C1127.88 42.7573 1125.92 41.8187 1124.47 40.368C1123.02 38.832 1122.29 36.528 1122.29 33.456C1122.29 28.4213 1123.48 24.8373 1125.87 22.704C1128.26 20.4853 1132.23 19.3333 1137.78 19.248L1159.03 18.992C1168.24 18.9067 1175.88 20.4427 1181.94 23.6C1188 26.7573 1192.52 31.5787 1195.51 38.064C1198.58 44.464 1200.11 52.5707 1200.11 62.384V83.248C1200.11 85.2107 1199.94 87.1307 1199.6 89.008C1199.26 90.8 1198.28 92.2933 1196.66 93.488C1195.12 94.5973 1192.39 95.152 1188.47 95.152C1184.63 95.152 1181.9 94.64 1180.27 93.616C1178.65 92.5067 1177.63 91.0987 1177.2 89.392C1176.86 87.6853 1176.69 85.936 1176.69 84.144V62.64C1176.69 57.9467 1176.09 54.1493 1174.9 51.248C1173.79 48.2613 1172.04 46.0853 1169.65 44.72C1167.35 43.2693 1164.32 42.544 1160.56 42.544H1155.83V81.072C1155.83 85.5947 1154.8 89.0933 1152.75 91.568C1150.71 93.9573 1147.76 95.152 1143.92 95.152H1130.1Z" fill="#409DC5"/>
</svg>
